<svg id="visual" viewBox="0 0 900 600" width="900" height="600" xmlns="http://www.w3.org/2000/svg" xmlns:xlink="http://www.w3.org/1999/xlink" version="1.1"><rect width="900" height="600" fill="#1d1d1d"></rect><g><g transform="translate(58 45)"><path d="M0 -60L60 0L0 60L-60 0Z" fill="#6d2ad2"></path></g><g transform="translate(596 362)"><path d="M0 -52L52 0L0 52L-52 0Z" fill="#6d2ad2"></path></g><g transform="translate(331 69)"><path d="M0 -37L37 0L0 37L-37 0Z" fill="#6d2ad2"></path></g><g transform="translate(432 596)"><path d="M0 -33L33 0L0 33L-33 0Z" fill="#6d2ad2"></path></g><g transform="translate(234 192)"><path d="M0 -30L30 0L0 30L-30 0Z" fill="#6d2ad2"></path></g><g transform="translate(335 447)"><path d="M0 -43L43 0L0 43L-43 0Z" fill="#6d2ad2"></path></g><g transform="translate(108 182)"><path d="M0 -57L57 0L0 57L-57 0Z" fill="#6d2ad2"></path></g><g transform="translate(702 72)"><path d="M0 -38L38 0L0 38L-38 0Z" fill="#6d2ad2"></path></g><g transform="translate(745 247)"><path d="M0 -34L34 0L0 34L-34 0Z" fill="#6d2ad2"></path></g><g transform="translate(219 336)"><path d="M0 -36L36 0L0 36L-36 0Z" fill="#6d2ad2"></path></g><g transform="translate(417 241)"><path d="M0 -34L34 0L0 34L-34 0Z" fill="#6d2ad2"></path></g><g transform="translate(280 577)"><path d="M0 -32L32 0L0 32L-32 0Z" fill="#6d2ad2"></path></g><g transform="translate(570 514)"><path d="M0 -42L42 0L0 42L-42 0Z" fill="#6d2ad2"></path></g><g transform="translate(785 386)"><path d="M0 -54L54 0L0 54L-54 0Z" fill="#6d2ad2"></path></g><g transform="translate(85 311)"><path d="M0 -41L41 0L0 41L-41 0Z" fill="#6d2ad2"></path></g><g transform="translate(579 39)"><path d="M0 -50L50 0L0 50L-50 0Z" fill="#6d2ad2"></path></g><g transform="translate(864 40)"><path d="M0 -29L29 0L0 29L-29 0Z" fill="#6d2ad2"></path></g><g transform="translate(618 170)"><path d="M0 -31L31 0L0 31L-31 0Z" fill="#6d2ad2"></path></g><g transform="translate(897 598)"><path d="M0 -35L35 0L0 35L-35 0Z" fill="#6d2ad2"></path></g><g transform="translate(865 235)"><path d="M0 -49L49 0L0 49L-49 0Z" fill="#6d2ad2"></path></g><g transform="translate(212 469)"><path d="M0 -51L51 0L0 51L-51 0Z" fill="#6d2ad2"></path></g><g transform="translate(16 478)"><path d="M0 -50L50 0L0 50L-50 0Z" fill="#6d2ad2"></path></g><g transform="translate(713 567)"><path d="M0 -58L58 0L0 58L-58 0Z" fill="#6d2ad2"></path></g><g transform="translate(207 11)"><path d="M0 -39L39 0L0 39L-39 0Z" fill="#6d2ad2"></path></g><g transform="translate(491 142)"><path d="M0 -29L29 0L0 29L-29 0Z" fill="#6d2ad2"></path></g><g transform="translate(141 566)"><path d="M0 -47L47 0L0 47L-47 0Z" fill="#6d2ad2"></path></g><g transform="translate(463 411)"><path d="M0 -48L48 0L0 48L-48 0Z" fill="#6d2ad2"></path></g><g transform="translate(440 10)"><path d="M0 -38L38 0L0 38L-38 0Z" fill="#6d2ad2"></path></g><g transform="translate(885 473)"><path d="M0 -38L38 0L0 38L-38 0Z" fill="#6d2ad2"></path></g></g></svg>