<?xml version="1.0" encoding="UTF-8"?>
<!DOCTYPE svg PUBLIC "-//W3C//DTD SVG 1.1//EN" "http://www.w3.org/Graphics/SVG/1.1/DTD/svg11.dtd">
<!-- Creator: CorelDRAW -->
<svg xmlns="http://www.w3.org/2000/svg" xml:space="preserve" width="6.82666in" height="6.82666in" style="shape-rendering:geometricPrecision; text-rendering:geometricPrecision; image-rendering:optimizeQuality; fill-rule:evenodd; clip-rule:evenodd"
viewBox="0 0 6.82666 6.82666"
 xmlns:xlink="http://www.w3.org/1999/xlink">
 <defs>
  <style type="text/css">
   <![CDATA[
    .fil6 {fill:none}
    .fil1 {fill:#563B30}
    .fil4 {fill:#9C9C9C}
    .fil0 {fill:#B3B3B3}
    .fil5 {fill:#E64A19}
    .fil3 {fill:#EEEEEE}
    .fil2 {fill:#FF5722}
   ]]>
  </style>
 </defs>
 <g id="Layer_x0020_1">
  <metadata id="CorelCorpID_0Corel-Layer"/>
  <g id="_256039184">
   <path id="_256040096" class="fil0" d="M2.43717 4.69891c1.26223,-0.919165 3.34434,-2.45972 3.53616,-3.84558 -0.423717,0.129882 -0.847433,0.259768 -1.27115,0.38965 -0.0378543,0.0847402 -0.0763228,0.166421 -0.115299,0.245594l0.0040748 0.00163386c0.0879961,0.0358898 0.145654,0.0985039 0.128787,0.139854 -0.0168622,0.0413465 -0.101866,0.0457717 -0.189854,0.00988583 -0.00551969,-0.00224803 -0.0109173,-0.00460236 -0.016185,-0.00705118 -0.0570827,0.109311 -0.115272,0.213354 -0.174488,0.312776 0.00454724,0.00221654 0.00911024,0.00454724 0.0136614,0.007 0.0836339,0.045126 0.13424,0.113563 0.113031,0.152866 -0.0212008,0.0393031 -0.106193,0.0345787 -0.189823,-0.0105472 -0.00724803,-0.00390945 -0.0142441,-0.00800394 -0.0209764,-0.0122323 -0.0680551,0.107701 -0.137382,0.209878 -0.207866,0.307449 0.0078937,0.00428346 0.0158071,0.00896063 0.0236811,0.0140315 0.0798858,0.0514724 0.125035,0.12363 0.100843,0.161169 -0.024185,0.0375354 -0.108551,0.0262362 -0.188433,-0.0252283 -0.0110079,-0.00709449 -0.0213583,-0.0145827 -0.0309567,-0.0223228 -0.558114,0.731177 -1.18387,1.20742 -1.82461,1.87164l0.14365 0.165752 0.16576 0.143661z"/>
   <polygon id="_256040048" class="fil1" points="1.48601,5.64252 2.40637,4.72217 2.26621,4.56045 2.10449,4.42029 1.18414,5.34065 "/>
   <polygon id="_256040168" class="fil2" points="1.47863,5.59965 1.227,5.34802 1.19913,5.32015 1.01393,5.13496 0.853327,5.3842 1.44245,5.97333 1.6917,5.81272 1.5065,5.62752 "/>
   <path id="_256040648" class="fil2" d="M1.19526 4.15474c0.128909,-0.0410709 0.487161,-0.0768976 0.884028,0.568374 0.46652,0.758528 0.969787,0.659323 1.26887,0.281 0.0417165,-0.0527244 0.0314803,-0.0617047 -0.0263661,-0.0375157 -0.177965,0.0744055 -0.606898,0.173319 -0.961307,-0.38026 -0.444087,-0.69363 -0.87752,-0.880362 -1.18393,-0.45752 -0.0327559,0.0444724 -0.0205354,0.0383898 0.0187126,0.0259213z"/>
   <path id="_256039928" class="fil3" d="M2.43919 4.69744c1.26243,-0.919331 3.34243,-2.45898 3.53414,-3.84411l-0.566295 0.499665c0,0 -0.278512,1.19307 -3.00625,3.29309 0.0127283,0.0178937 0.0255354,0.035 0.0384055,0.0513504z"/>
   <path id="_256039664" class="fil4" d="M5.40703 1.35299l0.566295 -0.499665 -1.26434 0.387563c0.129114,0.142012 0.343276,0.229843 0.698043,0.112102z"/>
   <path id="_256039544" class="fil5" d="M3.37285 4.95735c-0.321114,0.245217 -0.577969,0.285874 -1.03304,-0.168626 -0.0702047,-0.0701063 -0.145118,-0.152 -0.225713,-0.24674 -0.0208189,-0.0244685 -0.0412677,-0.0477677 -0.0613583,-0.0699449 -0.612291,-0.675969 -0.886287,-0.308732 -0.886287,-0.308732 0.00643701,-0.00122835 0.0162402,-0.00456693 0.0288189,-0.00856299 0.116673,-0.0371693 0.421236,-0.0700551 0.772256,0.402508 0.0367992,0.0495433 0.0741102,0.104638 0.111768,0.165866 0.0441614,0.0718071 0.0886535,0.135925 0.133272,0.19285 0.426705,0.544394 0.864827,0.430661 1.13559,0.0881535 0.0199331,-0.0251929 0.0280039,-0.0403976 0.0246929,-0.0467717z"/>
  </g>
  <g id="_256038848">
   <path id="_256039328" class="fil0" d="M4.3895 4.69891c-1.26223,-0.919165 -3.34434,-2.45972 -3.53616,-3.84558 0.423717,0.129882 0.847433,0.259768 1.27115,0.38965 0.0378543,0.0847402 0.0763228,0.166421 0.115299,0.245594l-0.0040748 0.00163386c-0.0879961,0.0358898 -0.145654,0.0985039 -0.128787,0.139854 0.0168622,0.0413465 0.101866,0.0457717 0.189854,0.00988583 0.00551969,-0.00224803 0.0109173,-0.00460236 0.016185,-0.00705118 0.0570827,0.109311 0.115272,0.213354 0.174488,0.312776 -0.00454724,0.00221654 -0.00911024,0.00454724 -0.0136614,0.007 -0.0836339,0.045126 -0.13424,0.113563 -0.113031,0.152866 0.0212008,0.0393031 0.106193,0.0345787 0.189823,-0.0105472 0.00724803,-0.00390945 0.0142441,-0.00800394 0.0209764,-0.0122323 0.0680551,0.107701 0.137382,0.209878 0.207866,0.307449 -0.0078937,0.00428346 -0.0158071,0.00896063 -0.0236811,0.0140315 -0.0798858,0.0514724 -0.125035,0.12363 -0.100843,0.161169 0.024185,0.0375354 0.108551,0.0262362 0.188433,-0.0252283 0.0110079,-0.00709449 0.0213583,-0.0145827 0.0309567,-0.0223228 0.558114,0.731177 1.18387,1.20742 1.82461,1.87164l-0.14365 0.165752 -0.16576 0.143661z"/>
   <polygon id="_256039616" class="fil1" points="5.34065,5.64252 4.42029,4.72217 4.56045,4.56045 4.72217,4.42029 5.64252,5.34065 "/>
   <polygon id="_256039856" class="fil2" points="5.34804,5.59965 5.59966,5.34802 5.62753,5.32015 5.81273,5.13496 5.97333,5.3842 5.38421,5.97333 5.13496,5.81272 5.32016,5.62752 "/>
   <path id="_256039712" class="fil2" d="M5.6314 4.15474c-0.128909,-0.0410709 -0.487161,-0.0768976 -0.884028,0.568374 -0.46652,0.758528 -0.969787,0.659323 -1.26887,0.281 -0.0417165,-0.0527244 -0.0314803,-0.0617047 0.0263661,-0.0375157 0.177965,0.0744055 0.606898,0.173319 0.961307,-0.38026 0.444087,-0.69363 0.87752,-0.880362 1.18393,-0.45752 0.0327559,0.0444724 0.0205354,0.0383898 -0.0187126,0.0259213z"/>
   <path id="_256038752" class="fil3" d="M4.38748 4.69744c-1.26243,-0.919331 -3.34243,-2.45898 -3.53414,-3.84411l0.566295 0.499665c0,0 0.278512,1.19307 3.00625,3.29309 -0.0127283,0.0178937 -0.0255354,0.035 -0.0384055,0.0513504z"/>
   <path id="_256038920" class="fil4" d="M1.41963 1.35299l-0.566295 -0.499665 1.26434 0.387563c-0.129114,0.142012 -0.343276,0.229843 -0.698043,0.112102z"/>
   <path id="_256038416" class="fil5" d="M3.45381 4.95735c0.321114,0.245217 0.577969,0.285874 1.03304,-0.168626 0.0702047,-0.0701063 0.145118,-0.152 0.225713,-0.24674 0.0208189,-0.0244685 0.0412677,-0.0477677 0.0613583,-0.0699449 0.612291,-0.675969 0.886287,-0.308732 0.886287,-0.308732 -0.00643701,-0.00122835 -0.0162402,-0.00456693 -0.0288189,-0.00856299 -0.116673,-0.0371693 -0.421236,-0.0700551 -0.772256,0.402508 -0.0367992,0.0495433 -0.0741102,0.104638 -0.111768,0.165866 -0.0441614,0.0718071 -0.0886535,0.135925 -0.133272,0.19285 -0.426705,0.544394 -0.864827,0.430661 -1.13559,0.0881535 -0.0199331,-0.0251929 -0.0280039,-0.0403976 -0.0246929,-0.0467717z"/>
  </g>
 </g>
 <rect class="fil6" width="6.82666" height="6.82666"/>
</svg>
