<svg id="visual" viewBox="0 0 900 600" width="900" height="600" xmlns="http://www.w3.org/2000/svg" xmlns:xlink="http://www.w3.org/1999/xlink" version="1.1"><rect width="900" height="600" fill="#1d1d1d"></rect><g><g transform="translate(664 307)"><path d="M0 -40.2L40.2 0L0 40.2L-40.2 0Z" fill="#6d2ad2"></path></g><g transform="translate(732 250)"><path d="M0 -17L17 0L0 17L-17 0Z" fill="#6d2ad2"></path></g><g transform="translate(211 14)"><path d="M0 -34L34 0L0 34L-34 0Z" fill="#6d2ad2"></path></g><g transform="translate(154 227)"><path d="M0 -8L8 0L0 8L-8 0Z" fill="#6d2ad2"></path></g><g transform="translate(124 376)"><path d="M0 -30L30 0L0 30L-30 0Z" fill="#6d2ad2"></path></g><g transform="translate(467 41)"><path d="M0 -12L12 0L0 12L-12 0Z" fill="#6d2ad2"></path></g><g transform="translate(676 33)"><path d="M0 -19L19 0L0 19L-19 0Z" fill="#6d2ad2"></path></g><g transform="translate(787 424)"><path d="M0 -15L15 0L0 15L-15 0Z" fill="#6d2ad2"></path></g><g transform="translate(503 413)"><path d="M0 -11L11 0L0 11L-11 0Z" fill="#6d2ad2"></path></g><g transform="translate(393 190)"><path d="M0 -24L24 0L0 24L-24 0Z" fill="#6d2ad2"></path></g><g transform="translate(606 387)"><path d="M0 -36L36 0L0 36L-36 0Z" fill="#6d2ad2"></path></g><g transform="translate(796 338)"><path d="M0 -17L17 0L0 17L-17 0Z" fill="#6d2ad2"></path></g><g transform="translate(144 529)"><path d="M0 -16L16 0L0 16L-16 0Z" fill="#6d2ad2"></path></g><g transform="translate(816 184)"><path d="M0 -9L9 0L0 9L-9 0Z" fill="#6d2ad2"></path></g><g transform="translate(532 277)"><path d="M0 -6L6 0L0 6L-6 0Z" fill="#6d2ad2"></path></g><g transform="translate(394 288)"><path d="M0 -17L17 0L0 17L-17 0Z" fill="#6d2ad2"></path></g><g transform="translate(48 293)"><path d="M0 -19L19 0L0 19L-19 0Z" fill="#6d2ad2"></path></g><g transform="translate(212 436)"><path d="M0 -35L35 0L0 35L-35 0Z" fill="#6d2ad2"></path></g><g transform="translate(22 150)"><path d="M0 -33L33 0L0 33L-33 0Z" fill="#6d2ad2"></path></g><g transform="translate(715 528)"><path d="M0 -20L20 0L0 20L-20 0Z" fill="#6d2ad2"></path></g><g transform="translate(890 354)"><path d="M0 -39L39 0L0 39L-39 0Z" fill="#6d2ad2"></path></g><g transform="translate(547 16)"><path d="M0 -14L14 0L0 14L-14 0Z" fill="#6d2ad2"></path></g><g transform="translate(309 235)"><path d="M0 -7L7 0L0 7L-7 0Z" fill="#6d2ad2"></path></g><g transform="translate(667 159)"><path d="M0 -22L22 0L0 22L-22 0Z" fill="#6d2ad2"></path></g><g transform="translate(881 490)"><path d="M0 -34L34 0L0 34L-34 0Z" fill="#6d2ad2"></path></g><g transform="translate(608 590)"><path d="M0 -33L33 0L0 33L-33 0Z" fill="#6d2ad2"></path></g><g transform="translate(294 103)"><path d="M0 -15L15 0L0 15L-15 0Z" fill="#6d2ad2"></path></g><g transform="translate(857 276)"><path d="M0 -20L20 0L0 20L-20 0Z" fill="#6d2ad2"></path></g><g transform="translate(767 75)"><path d="M0 -36L36 0L0 36L-36 0Z" fill="#6d2ad2"></path></g><g transform="translate(688 393)"><path d="M0 -13L13 0L0 13L-13 0Z" fill="#6d2ad2"></path></g><g transform="translate(271 317)"><path d="M0 -19L19 0L0 19L-19 0Z" fill="#6d2ad2"></path></g><g transform="translate(442 508)"><path d="M0 -20L20 0L0 20L-20 0Z" fill="#6d2ad2"></path></g><g transform="translate(893 36)"><path d="M0 -36L36 0L0 36L-36 0Z" fill="#6d2ad2"></path></g><g transform="translate(815 8)"><path d="M0 -34L34 0L0 34L-34 0Z" fill="#6d2ad2"></path></g><g transform="translate(29 510)"><path d="M0 -25L25 0L0 25L-25 0Z" fill="#6d2ad2"></path></g><g transform="translate(181 138)"><path d="M0 -32L32 0L0 32L-32 0Z" fill="#6d2ad2"></path></g><g transform="translate(395 437)"><path d="M0 -37L37 0L0 37L-37 0Z" fill="#6d2ad2"></path></g><g transform="translate(577 115)"><path d="M0 -34L34 0L0 34L-34 0Z" fill="#6d2ad2"></path></g><g transform="translate(92 452)"><path d="M0 -29L29 0L0 29L-29 0Z" fill="#6d2ad2"></path></g><g transform="translate(571 470)"><path d="M0 -31L31 0L0 31L-31 0Z" fill="#6d2ad2"></path></g><g transform="translate(8 377)"><path d="M0 -13L13 0L0 13L-13 0Z" fill="#6d2ad2"></path></g><g transform="translate(236 561)"><path d="M0 -22L22 0L0 22L-22 0Z" fill="#6d2ad2"></path></g><g transform="translate(338 377)"><path d="M0 -20L20 0L0 20L-20 0Z" fill="#6d2ad2"></path></g><g transform="translate(338 551)"><path d="M0 -8L8 0L0 8L-8 0Z" fill="#6d2ad2"></path></g><g transform="translate(789 576)"><path d="M0 -10L10 0L0 10L-10 0Z" fill="#6d2ad2"></path></g><g transform="translate(191 325)"><path d="M0 -33L33 0L0 33L-33 0Z" fill="#6d2ad2"></path></g><g transform="translate(32 12)"><path d="M0 -18L18 0L0 18L-18 0Z" fill="#6d2ad2"></path></g><g transform="translate(433 364)"><path d="M0 -12L12 0L0 12L-12 0Z" fill="#6d2ad2"></path></g><g transform="translate(490 152)"><path d="M0 -23L23 0L0 23L-23 0Z" fill="#6d2ad2"></path></g><g transform="translate(500 569)"><path d="M0 -37L37 0L0 37L-37 0Z" fill="#6d2ad2"></path></g><g transform="translate(25 598)"><path d="M0 -38L38 0L0 38L-38 0Z" fill="#6d2ad2"></path></g><g transform="translate(324 7)"><path d="M0 -35L35 0L0 35L-35 0Z" fill="#6d2ad2"></path></g><g transform="translate(378 66)"><path d="M0 -32L32 0L0 32L-32 0Z" fill="#6d2ad2"></path></g><g transform="translate(872 579)"><path d="M0 -19L19 0L0 19L-19 0Z" fill="#6d2ad2"></path></g><g transform="translate(302 451)"><path d="M0 -33L33 0L0 33L-33 0Z" fill="#6d2ad2"></path></g><g transform="translate(132 42)"><path d="M0 -35L35 0L0 35L-35 0Z" fill="#6d2ad2"></path></g><g transform="translate(590 198)"><path d="M0 -12L12 0L0 12L-12 0Z" fill="#6d2ad2"></path></g><g transform="translate(885 141)"><path d="M0 -17L17 0L0 17L-17 0Z" fill="#6d2ad2"></path></g><g transform="translate(415 597)"><path d="M0 -6L6 0L0 6L-6 0Z" fill="#6d2ad2"></path></g><g transform="translate(460 237)"><path d="M0 -12L12 0L0 12L-12 0Z" fill="#6d2ad2"></path></g><g transform="translate(654 468)"><path d="M0 -5L5 0L0 5L-5 0Z" fill="#6d2ad2"></path></g></g></svg>