<svg id="visual" viewBox="0 0 900 600" width="900" height="600" xmlns="http://www.w3.org/2000/svg" xmlns:xlink="http://www.w3.org/1999/xlink" version="1.1"><path d="M0 193L13.7 193C27.3 193 54.7 193 82 189C109.3 185 136.7 177 163.8 174C191 171 218 173 245.2 175C272.3 177 299.7 179 327 186C354.3 193 381.7 205 409 199C436.3 193 463.7 169 491 156C518.3 143 545.7 141 573 151C600.3 161 627.7 183 654.8 186C682 189 709 173 736.2 166C763.3 159 790.7 161 818 169C845.3 177 872.7 191 886.3 198L900 205L900 0L886.3 0C872.7 0 845.3 0 818 0C790.7 0 763.3 0 736.2 0C709 0 682 0 654.8 0C627.7 0 600.3 0 573 0C545.7 0 518.3 0 491 0C463.7 0 436.3 0 409 0C381.7 0 354.3 0 327 0C299.7 0 272.3 0 245.2 0C218 0 191 0 163.8 0C136.7 0 109.3 0 82 0C54.7 0 27.3 0 13.7 0L0 0Z" fill="#61c2ea"></path><path d="M0 289L13.7 286C27.3 283 54.7 277 82 273C109.3 269 136.7 267 163.8 263C191 259 218 253 245.2 250C272.3 247 299.7 247 327 254C354.3 261 381.7 275 409 274C436.3 273 463.7 257 491 246C518.3 235 545.7 229 573 238C600.3 247 627.7 271 654.8 273C682 275 709 255 736.2 248C763.3 241 790.7 247 818 254C845.3 261 872.7 269 886.3 273L900 277L900 203L886.3 196C872.7 189 845.3 175 818 167C790.7 159 763.3 157 736.2 164C709 171 682 187 654.8 184C627.7 181 600.3 159 573 149C545.7 139 518.3 141 491 154C463.7 167 436.3 191 409 197C381.7 203 354.3 191 327 184C299.7 177 272.3 175 245.2 173C218 171 191 169 163.8 172C136.7 175 109.3 183 82 187C54.7 191 27.3 191 13.7 191L0 191Z" fill="#72cff4"></path><path d="M0 373L13.7 369C27.3 365 54.7 357 82 352C109.3 347 136.7 345 163.8 341C191 337 218 331 245.2 329C272.3 327 299.7 329 327 335C354.3 341 381.7 351 409 350C436.3 349 463.7 337 491 324C518.3 311 545.7 297 573 302C600.3 307 627.7 331 654.8 334C682 337 709 319 736.2 316C763.3 313 790.7 325 818 335C845.3 345 872.7 353 886.3 357L900 361L900 275L886.3 271C872.7 267 845.3 259 818 252C790.7 245 763.3 239 736.2 246C709 253 682 273 654.8 271C627.7 269 600.3 245 573 236C545.7 227 518.3 233 491 244C463.7 255 436.3 271 409 272C381.7 273 354.3 259 327 252C299.7 245 272.3 245 245.2 248C218 251 191 257 163.8 261C136.7 265 109.3 267 82 271C54.7 275 27.3 281 13.7 284L0 287Z" fill="#82ddff"></path><path d="M0 493L13.7 495C27.3 497 54.7 501 82 499C109.3 497 136.7 489 163.8 484C191 479 218 477 245.2 479C272.3 481 299.7 487 327 491C354.3 495 381.7 497 409 498C436.3 499 463.7 499 491 495C518.3 491 545.7 483 573 485C600.3 487 627.7 499 654.8 505C682 511 709 511 736.2 506C763.3 501 790.7 491 818 490C845.3 489 872.7 497 886.3 501L900 505L900 359L886.3 355C872.7 351 845.3 343 818 333C790.7 323 763.3 311 736.2 314C709 317 682 335 654.8 332C627.7 329 600.3 305 573 300C545.7 295 518.3 309 491 322C463.7 335 436.3 347 409 348C381.7 349 354.3 339 327 333C299.7 327 272.3 325 245.2 327C218 329 191 335 163.8 339C136.7 343 109.3 345 82 350C54.7 355 27.3 363 13.7 367L0 371Z" fill="#99e3ff"></path><path d="M0 601L13.7 601C27.3 601 54.7 601 82 601C109.3 601 136.7 601 163.8 601C191 601 218 601 245.2 601C272.3 601 299.7 601 327 601C354.3 601 381.7 601 409 601C436.3 601 463.7 601 491 601C518.3 601 545.7 601 573 601C600.3 601 627.7 601 654.8 601C682 601 709 601 736.2 601C763.3 601 790.7 601 818 601C845.3 601 872.7 601 886.3 601L900 601L900 503L886.3 499C872.7 495 845.3 487 818 488C790.7 489 763.3 499 736.2 504C709 509 682 509 654.8 503C627.7 497 600.3 485 573 483C545.7 481 518.3 489 491 493C463.7 497 436.3 497 409 496C381.7 495 354.3 493 327 489C299.7 485 272.3 479 245.2 477C218 475 191 477 163.8 482C136.7 487 109.3 495 82 497C54.7 499 27.3 495 13.7 493L0 491Z" fill="#aee8ff"></path></svg>