<svg id="visual" viewBox="0 0 900 600" width="900" height="600" xmlns="http://www.w3.org/2000/svg" xmlns:xlink="http://www.w3.org/1999/xlink" version="1.1"><path d="M0 73L13.7 77C27.3 81 54.7 89 82 91C109.3 93 136.7 89 163.8 81C191 73 218 61 245.2 58C272.3 55 299.7 61 327 68C354.3 75 381.7 83 409 79C436.3 75 463.7 59 491 55C518.3 51 545.7 59 573 60C600.3 61 627.7 55 654.8 53C682 51 709 53 736.2 59C763.3 65 790.7 75 818 78C845.3 81 872.7 77 886.3 75L900 73L900 0L886.3 0C872.7 0 845.3 0 818 0C790.7 0 763.3 0 736.2 0C709 0 682 0 654.8 0C627.7 0 600.3 0 573 0C545.7 0 518.3 0 491 0C463.7 0 436.3 0 409 0C381.7 0 354.3 0 327 0C299.7 0 272.3 0 245.2 0C218 0 191 0 163.8 0C136.7 0 109.3 0 82 0C54.7 0 27.3 0 13.7 0L0 0Z" fill="#ffffff"></path><path d="M0 85L13.7 93C27.3 101 54.7 117 82 121C109.3 125 136.7 117 163.8 106C191 95 218 81 245.2 76C272.3 71 299.7 75 327 81C354.3 87 381.7 95 409 96C436.3 97 463.7 91 491 89C518.3 87 545.7 89 573 88C600.3 87 627.7 83 654.8 80C682 77 709 75 736.2 83C763.3 91 790.7 109 818 116C845.3 123 872.7 119 886.3 117L900 115L900 71L886.3 73C872.7 75 845.3 79 818 76C790.7 73 763.3 63 736.2 57C709 51 682 49 654.8 51C627.7 53 600.3 59 573 58C545.7 57 518.3 49 491 53C463.7 57 436.3 73 409 77C381.7 81 354.3 73 327 66C299.7 59 272.3 53 245.2 56C218 59 191 71 163.8 79C136.7 87 109.3 91 82 89C54.7 87 27.3 79 13.7 75L0 71Z" fill="#ffffff"></path><path d="M0 109L13.7 118C27.3 127 54.7 145 82 154C109.3 163 136.7 163 163.8 158C191 153 218 143 245.2 139C272.3 135 299.7 137 327 142C354.3 147 381.7 155 409 159C436.3 163 463.7 163 491 164C518.3 165 545.7 167 573 159C600.3 151 627.7 133 654.8 121C682 109 709 103 736.2 117C763.3 131 790.7 165 818 173C845.3 181 872.7 163 886.3 154L900 145L900 113L886.3 115C872.7 117 845.3 121 818 114C790.7 107 763.3 89 736.2 81C709 73 682 75 654.8 78C627.7 81 600.3 85 573 86C545.7 87 518.3 85 491 87C463.7 89 436.3 95 409 94C381.7 93 354.3 85 327 79C299.7 73 272.3 69 245.2 74C218 79 191 93 163.8 104C136.7 115 109.3 123 82 119C54.7 115 27.3 99 13.7 91L0 83Z" fill="#ffffff"></path><path d="M0 193L13.7 196C27.3 199 54.7 205 82 208C109.3 211 136.7 211 163.8 204C191 197 218 183 245.2 175C272.3 167 299.7 165 327 170C354.3 175 381.7 187 409 193C436.3 199 463.7 199 491 207C518.3 215 545.7 231 573 230C600.3 229 627.7 211 654.8 202C682 193 709 193 736.2 199C763.3 205 790.7 217 818 219C845.3 221 872.7 213 886.3 209L900 205L900 143L886.3 152C872.7 161 845.3 179 818 171C790.7 163 763.3 129 736.2 115C709 101 682 107 654.8 119C627.7 131 600.3 149 573 157C545.7 165 518.3 163 491 162C463.7 161 436.3 161 409 157C381.7 153 354.3 145 327 140C299.7 135 272.3 133 245.2 137C218 141 191 151 163.8 156C136.7 161 109.3 161 82 152C54.7 143 27.3 125 13.7 116L0 107Z" fill="#ffffff"></path><path d="M0 235L13.7 237C27.3 239 54.7 243 82 247C109.3 251 136.7 255 163.8 251C191 247 218 235 245.2 229C272.3 223 299.7 223 327 229C354.3 235 381.7 247 409 247C436.3 247 463.7 235 491 238C518.3 241 545.7 259 573 260C600.3 261 627.7 245 654.8 236C682 227 709 225 736.2 228C763.3 231 790.7 239 818 247C845.3 255 872.7 263 886.3 267L900 271L900 203L886.3 207C872.7 211 845.3 219 818 217C790.7 215 763.3 203 736.2 197C709 191 682 191 654.8 200C627.7 209 600.3 227 573 228C545.7 229 518.3 213 491 205C463.7 197 436.3 197 409 191C381.7 185 354.3 173 327 168C299.7 163 272.3 165 245.2 173C218 181 191 195 163.8 202C136.7 209 109.3 209 82 206C54.7 203 27.3 197 13.7 194L0 191Z" fill="#ffffff"></path><path d="M0 289L13.7 286C27.3 283 54.7 277 82 280C109.3 283 136.7 295 163.8 292C191 289 218 271 245.2 266C272.3 261 299.7 269 327 274C354.3 279 381.7 281 409 276C436.3 271 463.7 259 491 262C518.3 265 545.7 283 573 283C600.3 283 627.7 265 654.8 259C682 253 709 259 736.2 267C763.3 275 790.7 285 818 291C845.3 297 872.7 299 886.3 300L900 301L900 269L886.3 265C872.7 261 845.3 253 818 245C790.7 237 763.3 229 736.2 226C709 223 682 225 654.8 234C627.7 243 600.3 259 573 258C545.7 257 518.3 239 491 236C463.7 233 436.3 245 409 245C381.7 245 354.3 233 327 227C299.7 221 272.3 221 245.2 227C218 233 191 245 163.8 249C136.7 253 109.3 249 82 245C54.7 241 27.3 237 13.7 235L0 233Z" fill="#fdfdfd"></path><path d="M0 421L13.7 420C27.3 419 54.7 417 82 418C109.3 419 136.7 423 163.8 429C191 435 218 443 245.2 433C272.3 423 299.7 395 327 384C354.3 373 381.7 379 409 375C436.3 371 463.7 357 491 368C518.3 379 545.7 415 573 426C600.3 437 627.7 423 654.8 405C682 387 709 365 736.2 362C763.3 359 790.7 375 818 388C845.3 401 872.7 411 886.3 416L900 421L900 299L886.3 298C872.7 297 845.3 295 818 289C790.7 283 763.3 273 736.2 265C709 257 682 251 654.8 257C627.7 263 600.3 281 573 281C545.7 281 518.3 263 491 260C463.7 257 436.3 269 409 274C381.7 279 354.3 277 327 272C299.7 267 272.3 259 245.2 264C218 269 191 287 163.8 290C136.7 293 109.3 281 82 278C54.7 275 27.3 281 13.7 284L0 287Z" fill="#f9f9f9"></path><path d="M0 445L13.7 447C27.3 449 54.7 453 82 458C109.3 463 136.7 469 163.8 474C191 479 218 483 245.2 468C272.3 453 299.7 419 327 409C354.3 399 381.7 413 409 409C436.3 405 463.7 383 491 393C518.3 403 545.7 445 573 459C600.3 473 627.7 459 654.8 443C682 427 709 409 736.2 407C763.3 405 790.7 419 818 426C845.3 433 872.7 433 886.3 433L900 433L900 419L886.3 414C872.7 409 845.3 399 818 386C790.7 373 763.3 357 736.2 360C709 363 682 385 654.8 403C627.7 421 600.3 435 573 424C545.7 413 518.3 377 491 366C463.7 355 436.3 369 409 373C381.7 377 354.3 371 327 382C299.7 393 272.3 421 245.2 431C218 441 191 433 163.8 427C136.7 421 109.3 417 82 416C54.7 415 27.3 417 13.7 418L0 419Z" fill="#f6f6f6"></path><path d="M0 487L13.7 486C27.3 485 54.7 483 82 489C109.3 495 136.7 509 163.8 515C191 521 218 519 245.2 505C272.3 491 299.7 465 327 454C354.3 443 381.7 447 409 437C436.3 427 463.7 403 491 414C518.3 425 545.7 471 573 491C600.3 511 627.7 505 654.8 489C682 473 709 447 736.2 440C763.3 433 790.7 445 818 451C845.3 457 872.7 457 886.3 457L900 457L900 431L886.3 431C872.7 431 845.3 431 818 424C790.7 417 763.3 403 736.2 405C709 407 682 425 654.8 441C627.7 457 600.3 471 573 457C545.7 443 518.3 401 491 391C463.7 381 436.3 403 409 407C381.7 411 354.3 397 327 407C299.7 417 272.3 451 245.2 466C218 481 191 477 163.8 472C136.7 467 109.3 461 82 456C54.7 451 27.3 447 13.7 445L0 443Z" fill="#f2f2f2"></path><path d="M0 601L13.7 601C27.3 601 54.7 601 82 601C109.3 601 136.7 601 163.8 601C191 601 218 601 245.2 601C272.3 601 299.7 601 327 601C354.3 601 381.7 601 409 601C436.3 601 463.7 601 491 601C518.3 601 545.7 601 573 601C600.3 601 627.7 601 654.8 601C682 601 709 601 736.2 601C763.3 601 790.7 601 818 601C845.3 601 872.7 601 886.3 601L900 601L900 455L886.3 455C872.7 455 845.3 455 818 449C790.7 443 763.3 431 736.2 438C709 445 682 471 654.8 487C627.7 503 600.3 509 573 489C545.7 469 518.3 423 491 412C463.7 401 436.3 425 409 435C381.7 445 354.3 441 327 452C299.7 463 272.3 489 245.2 503C218 517 191 519 163.8 513C136.7 507 109.3 493 82 487C54.7 481 27.3 483 13.7 484L0 485Z" fill="#eeeeee"></path></svg>