<svg id="visual" viewBox="0 0 900 600" width="900" height="600" xmlns="http://www.w3.org/2000/svg" xmlns:xlink="http://www.w3.org/1999/xlink" version="1.1"><path d="M0 181L11.5 180C23 179 46 177 69 163C92 149 115 123 138.2 124C161.3 125 184.7 153 207.8 154C231 155 254 129 277 121C300 113 323 123 346 127C369 131 392 129 415.2 153C438.3 177 461.7 227 484.8 253C508 279 531 281 554 270C577 259 600 235 623 205C646 175 669 139 692.2 128C715.3 117 738.7 131 761.8 136C785 141 808 137 831 131C854 125 877 117 888.5 113L900 109L900 0L888.5 0C877 0 854 0 831 0C808 0 785 0 761.8 0C738.7 0 715.3 0 692.2 0C669 0 646 0 623 0C600 0 577 0 554 0C531 0 508 0 484.8 0C461.7 0 438.3 0 415.2 0C392 0 369 0 346 0C323 0 300 0 277 0C254 0 231 0 207.8 0C184.7 0 161.3 0 138.2 0C115 0 92 0 69 0C46 0 23 0 11.5 0L0 0Z" fill="#ffffff"></path><path d="M0 277L11.5 281C23 285 46 293 69 274C92 255 115 209 138.2 197C161.3 185 184.7 207 207.8 216C231 225 254 221 277 216C300 211 323 205 346 199C369 193 392 187 415.2 209C438.3 231 461.7 281 484.8 307C508 333 531 335 554 339C577 343 600 349 623 330C646 311 669 267 692.2 251C715.3 235 738.7 247 761.8 251C785 255 808 251 831 237C854 223 877 199 888.5 187L900 175L900 107L888.5 111C877 115 854 123 831 129C808 135 785 139 761.8 134C738.7 129 715.3 115 692.2 126C669 137 646 173 623 203C600 233 577 257 554 268C531 279 508 277 484.8 251C461.7 225 438.3 175 415.2 151C392 127 369 129 346 125C323 121 300 111 277 119C254 127 231 153 207.8 152C184.7 151 161.3 123 138.2 122C115 121 92 147 69 161C46 175 23 177 11.5 178L0 179Z" fill="#ffffff"></path><path d="M0 433L11.5 431C23 429 46 425 69 412C92 399 115 377 138.2 368C161.3 359 184.7 363 207.8 359C231 355 254 343 277 334C300 325 323 319 346 327C369 335 392 357 415.2 385C438.3 413 461.7 447 484.8 462C508 477 531 473 554 477C577 481 600 493 623 463C646 433 669 361 692.2 341C715.3 321 738.7 353 761.8 362C785 371 808 357 831 340C854 323 877 303 888.5 293L900 283L900 173L888.5 185C877 197 854 221 831 235C808 249 785 253 761.8 249C738.7 245 715.3 233 692.2 249C669 265 646 309 623 328C600 347 577 341 554 337C531 333 508 331 484.8 305C461.7 279 438.3 229 415.2 207C392 185 369 191 346 197C323 203 300 209 277 214C254 219 231 223 207.8 214C184.7 205 161.3 183 138.2 195C115 207 92 253 69 272C46 291 23 283 11.5 279L0 275Z" fill="#f9f9f9"></path><path d="M0 601L11.5 601C23 601 46 601 69 601C92 601 115 601 138.2 601C161.3 601 184.7 601 207.8 601C231 601 254 601 277 601C300 601 323 601 346 601C369 601 392 601 415.2 601C438.3 601 461.7 601 484.8 601C508 601 531 601 554 601C577 601 600 601 623 601C646 601 669 601 692.2 601C715.3 601 738.7 601 761.8 601C785 601 808 601 831 601C854 601 877 601 888.5 601L900 601L900 281L888.5 291C877 301 854 321 831 338C808 355 785 369 761.8 360C738.7 351 715.3 319 692.2 339C669 359 646 431 623 461C600 491 577 479 554 475C531 471 508 475 484.8 460C461.7 445 438.3 411 415.2 383C392 355 369 333 346 325C323 317 300 323 277 332C254 341 231 353 207.8 357C184.7 361 161.3 357 138.2 366C115 375 92 397 69 410C46 423 23 427 11.5 429L0 431Z" fill="#eeeeee"></path></svg>